<svg width="31" height="31" viewBox="0 0 31 31" fill="none" xmlns="http://www.w3.org/2000/svg">
<path fill-rule="evenodd" clip-rule="evenodd" d="M18.4999 10.4512C18.4999 11.0123 18.9558 11.4672 19.5182 11.4672C20.0806 11.4672 20.5364 11.0123 20.5364 10.4512C20.5364 9.89003 20.0806 9.43512 19.5182 9.43512C18.9558 9.43512 18.4999 9.89003 18.4999 10.4512ZM12.1599 14.9706C12.1599 13.4118 13.4263 12.1483 14.9885 12.1483C16.5507 12.1483 17.8171 13.4118 17.8171 14.9706C17.8171 16.5293 16.5507 17.7929 14.9885 17.7929C13.4263 17.7929 12.1599 16.5293 12.1599 14.9706ZM14.9885 19.3188C12.5819 19.3188 10.631 17.3721 10.631 14.9709C10.631 12.5696 12.5819 10.623 14.9885 10.623C17.3951 10.623 19.3461 12.5696 19.3461 14.9709C19.3461 17.3721 17.3951 19.3188 14.9885 19.3188ZM21.8771 8.12284C21.5357 7.78137 21.2106 7.5699 20.7551 7.39289C20.4113 7.25923 19.8946 7.10029 18.9431 7.05688C17.9142 7.00994 17.6055 7 15 7C12.3944 7 12.0858 7.00994 11.0568 7.05688C10.1054 7.10029 9.58871 7.25923 9.24486 7.39289C8.78936 7.5699 8.46431 7.78137 8.12284 8.12284C7.78137 8.46431 7.5699 8.78939 7.39286 9.24486C7.25923 9.58871 7.10029 10.1054 7.05688 11.0568C7.00994 12.0858 7 12.3944 7 15C7 17.6056 7.00994 17.9142 7.05688 18.9432C7.10029 19.8946 7.25923 20.4113 7.39286 20.7551C7.5699 21.2106 7.78137 21.5357 8.12284 21.8772C8.46431 22.2186 8.78936 22.4301 9.24486 22.6071C9.58871 22.7407 10.1054 22.8997 11.0568 22.9431C12.0856 22.9901 12.3942 23 15 23C17.6057 23 17.9143 22.9901 18.9431 22.9431C19.8946 22.8997 20.4113 22.7407 20.7551 22.6071C21.2106 22.4301 21.5357 22.2186 21.8772 21.8771C22.2186 21.5357 22.4301 21.2106 22.6071 20.7551C22.7407 20.4113 22.8997 19.8946 22.9431 18.9432C22.9901 17.9142 23 17.6056 23 15C23 12.3944 22.9901 12.0858 22.9431 11.0568C22.8997 10.1054 22.7407 9.58871 22.6071 9.24486C22.4301 8.78939 22.2186 8.46431 21.8771 8.12284Z" fill="white"/>
<circle cx="15.5" cy="15.5" r="15" stroke="white"/>
</svg>
