<svg width="31" height="31" viewBox="0 0 31 31" fill="none" xmlns="http://www.w3.org/2000/svg">
<path fill-rule="evenodd" clip-rule="evenodd" d="M14.4752 22.4229H15.865C15.865 22.4229 16.2845 22.3799 16.4988 22.1642C16.6966 21.9654 16.6901 21.5932 16.6901 21.5932C16.6901 21.5932 16.663 19.8503 17.5283 19.5932C18.3812 19.3399 19.4772 21.2778 20.638 22.023C21.5164 22.5871 22.1838 22.4635 22.1838 22.4635L25.2886 22.4229C25.2886 22.4229 26.9124 22.3292 26.1424 21.1358C26.0792 21.0383 25.6933 20.2524 23.8339 18.6384C21.8866 16.9492 22.1477 17.2224 24.4931 14.2998C25.9207 12.5208 26.4921 11.4341 26.3131 10.969C26.1432 10.5254 25.0932 10.6428 25.0932 10.6428L21.5968 10.6627C21.5968 10.6627 21.3374 10.6297 21.1453 10.7372C20.9581 10.8423 20.8375 11.0879 20.8375 11.0879C20.8375 11.0879 20.2833 12.4648 19.5461 13.636C17.9896 16.1073 17.3665 16.2377 17.112 16.0842C16.5201 15.7266 16.6679 14.6483 16.6679 13.8816C16.6679 11.4862 17.057 10.4877 15.9118 10.2291C15.5317 10.1439 15.2518 10.0871 14.2798 10.0779C13.0328 10.0656 11.9771 10.081 11.3794 10.355C10.9813 10.5369 10.6742 10.9429 10.8614 10.9659C11.0921 10.9951 11.6159 11.0979 11.8933 11.4509C12.2513 11.9068 12.239 12.9299 12.239 12.9299C12.239 12.9299 12.445 15.7488 11.7579 16.0996C11.2867 16.339 10.6406 15.8494 9.25238 13.6068C8.54144 12.4586 8.00455 11.1892 8.00455 11.1892C8.00455 11.1892 7.90111 10.9521 7.7164 10.8247C7.49228 10.6712 7.1795 10.6221 7.1795 10.6221L3.85717 10.6428C3.85717 10.6428 3.35886 10.6558 3.17579 10.8584C3.01242 11.0388 3.16265 11.4118 3.16265 11.4118C3.16265 11.4118 5.76339 17.1004 8.70809 19.9669C11.409 22.5956 14.4752 22.4229 14.4752 22.4229Z" fill="white"/>
<circle cx="15.5" cy="15.5" r="15" stroke="white"/>
</svg>
