<svg width="23" height="23" viewBox="0 0 23 23" fill="none" xmlns="http://www.w3.org/2000/svg">
<path d="M17.8357 14.0215C16.8617 14.0215 15.9194 13.8631 15.0405 13.578C14.7633 13.483 14.4545 13.5543 14.2407 13.7681L12.9975 15.328C10.7565 14.259 8.65808 12.2398 7.54156 9.91964L9.08569 8.60516C9.29949 8.38344 9.36284 8.07461 9.27573 7.79746C8.98275 6.9185 8.83229 5.97619 8.83229 5.0022C8.83229 4.5746 8.47596 4.21826 8.04835 4.21826H5.30852C4.88092 4.21826 4.36621 4.40831 4.36621 5.0022C4.36621 12.3586 10.4873 18.4717 17.8357 18.4717C18.3979 18.4717 18.6197 17.9728 18.6197 17.5373V14.8054C18.6197 14.3778 18.2633 14.0215 17.8357 14.0215Z" fill="#2B2873"/>
</svg>
