<svg width="128" height="105" viewBox="0 0 128 105" fill="none" xmlns="http://www.w3.org/2000/svg">
<path d="M43.4023 70.5783H40.6297V67.3344C46.1569 63.8187 49.8357 57.6391 49.8357 50.6078V41.4199H53.8406V39.9701C53.8406 32.7575 50.0894 26.5054 44.689 23.6603C45.287 22.9535 45.6676 22.0112 45.6676 20.9782V15.1973H23.8124C16.328 15.1973 10.2571 22.1199 10.2571 30.6373V38.6472C8.11868 39.0459 6.28835 40.4775 5.49098 42.4891C4.45802 45.0805 5.20103 48.0163 7.35755 49.7923L10.3296 52.2206C10.837 58.5815 14.3708 64.0906 19.4631 67.3344V70.5783H16.8173C7.5569 70.5783 0 78.1171 0 87.3955V103.343C0 104.14 0.652394 104.793 1.44976 104.793H58.7698C59.5672 104.793 60.2196 104.14 60.2196 103.343V87.3955C60.2196 78.1171 52.6808 70.5783 43.4023 70.5783ZM10.239 48.415L9.18788 47.5451C8.00995 46.5847 7.59314 44.9718 8.17305 43.5583C8.53549 42.6703 9.31474 41.9635 10.2571 41.6373L10.239 48.415ZM13.1385 30.6373C13.1385 23.7328 17.9227 18.0968 23.7943 18.0968H42.7499V20.9782C42.7499 21.5944 42.3875 22.0112 42.0432 22.0112H38.31C38.2194 22.0112 38.1469 22.0112 38.0563 22.0112V24.9107C44.7252 24.9107 50.2343 30.9091 50.8505 38.5385H44.2541C44.9608 37.6143 45.5951 36.4726 46.1569 35.0953L43.4748 33.9898C42.4237 36.545 41.2096 37.9767 39.7417 38.3754C37.567 38.9553 34.3413 37.4693 29.3034 33.5549C26.6032 31.4527 23.8124 30.7641 21.0216 31.4709C17.6509 32.3226 14.9507 35.1496 13.1204 37.7049L13.1385 30.6373ZM13.1385 50.6259V43.4133C14.1896 41.0937 17.5784 35.349 21.7465 34.2979C23.6674 33.8086 25.5521 34.3342 27.5455 35.8745C31.3149 38.7922 35.2293 41.4199 38.7993 41.4199C38.8537 41.4199 38.9081 41.4199 38.9624 41.4199V41.4561H46.9361V50.644C46.9361 59.9587 39.3611 67.5338 30.0464 67.5338C20.7316 67.5338 13.1385 59.9406 13.1385 50.6259ZM22.3445 72.0099V68.8748C24.7185 69.8715 27.3099 70.4333 30.0464 70.4333C32.7647 70.4333 35.3743 69.8715 37.7482 68.8748V71.9193C37.7482 71.9555 37.7482 71.9918 37.7482 72.028V75.4894L37.7301 75.888C37.567 80.0199 34.2326 83.2637 30.1551 83.2818H30.0645H29.9739C25.7877 83.2637 22.3807 79.8205 22.3807 75.58V72.0462C22.3445 72.0099 22.3445 72.0099 22.3445 72.0099ZM57.3201 101.893H48.0416V94.5538H45.142V101.893H15.0051V94.5538H12.1055V101.893H2.88141V87.3955C2.88141 79.7299 9.11539 73.4778 16.7991 73.4778H19.445V75.5618C19.445 81.379 24.1567 86.127 29.9376 86.1632H30.0282H30.137C35.7911 86.1451 40.3759 81.669 40.6115 75.9786L40.6297 75.5618C40.6297 75.5437 40.6297 75.5256 40.6297 75.5075V73.4778H43.4023C51.0679 73.4778 57.3201 79.7118 57.3201 87.3955V101.893Z" fill="#E30B13"/>
<path d="M116.86 67.6965C118.392 65.6381 119.694 63.3697 120.765 60.8912C123.221 55.199 124.397 48.4147 124.397 40.181C124.397 29.5109 121.08 19.4919 115.075 11.9094C108.986 4.22185 100.84 0 92.1473 0C83.5389 0 75.4975 4.24285 69.5136 11.9304C63.7187 19.3659 60.3174 29.3639 59.9184 40.118C59.6665 46.7133 60.9682 54.0438 63.4458 60.219C64.5796 63.0336 65.9233 65.5331 67.477 67.7385C61.2622 71.1202 57.3359 77.6525 57.3359 84.836V103.32C57.3359 104.244 58.0918 105 59.0156 105H125.426C126.35 105 127.106 104.244 127.106 103.32V84.836C127.106 77.6105 123.137 71.0572 116.86 67.6965ZM66.5532 58.9588C64.2436 53.2036 63.0259 46.3773 63.2568 40.223C63.6347 30.183 66.7841 20.8572 72.1591 13.9888C77.5131 7.14143 84.6097 3.36067 92.1473 3.36067C108.083 3.36067 121.038 19.87 121.038 40.181C121.038 54.2539 117.364 64.0208 109.511 70.5531L112.639 52.3425C114.193 49.2128 115.075 45.6841 115.075 41.9664V29.91C115.075 29.889 115.075 29.868 115.075 29.847C115.075 29.6159 115.012 29.4059 114.928 29.2168C114.823 29.0068 114.697 28.7968 114.508 28.6497C111.527 26.0242 109.763 22.2434 109.658 18.2947L109.595 15.4591C109.574 14.787 109.154 14.1778 108.503 13.9258C107.873 13.6737 107.138 13.8418 106.677 14.3459C100.021 21.4873 90.6986 24.869 84.0429 26.4653C76.7572 28.2086 70.9833 28.2296 70.8994 28.2296C69.9755 28.2296 69.2197 28.9858 69.2197 29.91L69.1777 42.2394C69.1777 45.4321 69.8286 48.5407 71.0673 51.3973C71.0673 51.4813 71.0883 51.5863 71.1093 51.6703L75.3085 71.1622C70.8574 67.8226 68.1279 62.8866 66.5532 58.9588ZM92.2943 61.8154C92.2523 61.8154 92.1893 61.8154 92.1473 61.8154C86.9403 61.8154 82.0482 59.799 78.3529 56.1232C74.6157 52.4265 72.558 47.4905 72.558 42.2184L72.6 31.5063C74.9096 31.3803 79.4027 31.0022 84.7567 29.7209C95.1287 27.2635 101.994 23.0626 106.362 19.2819C106.698 23.5667 108.608 27.6205 111.716 30.6031V41.9244C111.716 45.117 110.96 48.1416 109.616 50.8302C109.553 50.9352 109.49 51.0402 109.448 51.1452C106.215 57.4465 99.7269 61.7734 92.2943 61.8154ZM108.188 58.5387L107.012 65.3651H104.43V61.5633C105.774 60.6811 107.033 59.6729 108.188 58.5387ZM79.8647 61.6263V65.3651H77.5131L76.0644 58.6017C77.2402 59.757 78.5209 60.7652 79.8647 61.6263ZM90.0477 101.66H74.7206V93.1536H71.3613V101.66H60.6743V84.857C60.6743 78.7237 64.1386 73.1576 69.5976 70.4271C71.8022 72.8846 74.3007 74.796 77.0722 76.0982C77.3031 76.2032 77.5551 76.2663 77.786 76.2663C78.164 76.2663 78.5209 76.1402 78.8358 75.9092C79.3398 75.5101 79.5707 74.859 79.4237 74.2499L78.248 68.7467H80.2006L90.0687 83.7438L90.0477 101.66ZM83.224 67.2345V67.0454V67.0244V63.3907C86.0165 64.5669 89.0189 65.176 92.1473 65.176C92.2103 65.176 92.2733 65.176 92.3153 65.176C95.4017 65.155 98.3621 64.5039 101.05 63.3487V66.9194C101.05 66.9404 101.05 66.9614 101.05 67.0034V67.1924L91.8114 80.2781L83.224 67.2345ZM123.746 101.66H112.996V93.1536H109.637V101.66H93.4281V83.8488L104.094 68.7467H106.446L105.522 74.0818C105.417 74.7329 105.69 75.4051 106.257 75.7622C106.803 76.1402 107.537 76.1402 108.083 75.7832C110.582 74.1868 112.765 72.3805 114.655 70.3641C120.198 73.0526 123.746 78.6607 123.746 84.878V101.66Z" fill="#E30B13"/>
</svg>
