<svg width="70" height="105" viewBox="0 0 70 105" fill="none" xmlns="http://www.w3.org/2000/svg">
<path d="M50.4514 64.9029H47.2284V61.1013C53.6533 56.9812 57.9296 49.7391 57.9296 41.4988V30.7312H62.585V29.0322C62.585 20.5795 58.2245 13.2524 51.947 9.91808C52.6422 9.0898 53.0846 7.98544 53.0846 6.77488V0H27.6798C18.9798 0 11.923 8.11286 11.923 18.0947V27.4818C9.43725 27.949 7.30966 29.6268 6.38279 31.9842C5.18206 35.0212 6.04574 38.4618 8.55251 40.5431L12.0072 43.389C12.597 50.8434 16.7048 57.2998 22.6241 61.1013V64.9029H19.5486C8.78423 64.9029 0 73.7379 0 84.6116V103.301C0 104.235 0.758351 105 1.68522 105H68.3148C69.2417 105 70 104.235 70 103.301V84.6116C70 73.7379 61.2368 64.9029 50.4514 64.9029ZM11.9019 38.929L10.6801 37.9096C9.31086 36.784 8.82636 34.8938 9.50045 33.2373C9.92176 32.1966 10.8276 31.3683 11.923 30.986L11.9019 38.929ZM15.2723 18.0947C15.2723 10.003 20.8336 3.39806 27.6587 3.39806H49.693V6.77488C49.693 7.49697 49.2717 7.98544 48.8715 7.98544H44.532C44.4267 7.98544 44.3425 7.98544 44.2371 7.98544V11.3835C51.9892 11.3835 58.393 18.4132 59.1092 27.3544H51.4415C52.263 26.2712 53.0003 24.9332 53.6533 23.3192L50.5357 22.0237C49.3139 25.0182 47.9025 26.696 46.1962 27.1632C43.6684 27.8428 39.9188 26.1013 34.0626 21.514C30.9239 19.0504 27.6798 18.2433 24.4357 19.0716C20.5176 20.0698 17.3789 23.3829 15.2513 26.3774L15.2723 18.0947ZM15.2723 41.52V33.0673C16.4941 30.3489 20.4333 23.6165 25.2784 22.3847C27.5113 21.8113 29.7021 22.4272 32.0193 24.2324C36.4008 27.6517 40.9509 30.7312 45.1008 30.7312C45.164 30.7312 45.2272 30.7312 45.2904 30.7312V30.7737H54.5591V41.5413C54.5591 52.4575 45.7538 61.3349 34.9263 61.3349C24.0987 61.3349 15.2723 52.4363 15.2723 41.52ZM25.9735 66.5807V62.9065C28.7331 64.0746 31.7454 64.733 34.9263 64.733C38.0861 64.733 41.1195 64.0746 43.879 62.9065V66.4745C43.879 66.517 43.879 66.5595 43.879 66.6019V70.6584L43.858 71.1256C43.6684 75.9678 39.7924 79.7694 35.0527 79.7906H34.9473H34.842C29.9759 79.7694 26.0156 75.7342 26.0156 70.7646V66.6232C25.9735 66.5807 25.9735 66.5807 25.9735 66.5807ZM66.6296 101.602H55.8441V93.0006H52.4737V101.602H17.4421V93.0006H14.0716V101.602H3.34938V84.6116C3.34938 75.628 10.5958 68.301 19.5275 68.301H22.6031V70.7433C22.6031 77.5607 28.08 83.125 34.7999 83.1675H34.9052H35.0316C41.604 83.1462 46.9335 77.9005 47.2073 71.2318L47.2284 70.7433C47.2284 70.7221 47.2284 70.7008 47.2284 70.6796V68.301H50.4514C59.362 68.301 66.6296 75.6068 66.6296 84.6116V101.602Z" fill="#E30B13"/>
</svg>
