<svg width="198" height="109" viewBox="0 0 198 109" fill="none" xmlns="http://www.w3.org/2000/svg">
<path d="M47.1731 71.4545H44.1596V67.9288C50.167 64.1077 54.1654 57.3912 54.1654 49.7489V39.7628H58.5183V38.1871C58.5183 30.3479 54.4411 23.5526 48.5716 20.4602C49.2216 19.6921 49.6352 18.6678 49.6352 17.5451V11.262H25.8812C17.7466 11.262 11.1482 18.786 11.1482 28.0434V36.7492C8.82403 37.1826 6.83469 38.7386 5.96804 40.9249C4.84534 43.7415 5.6529 46.9323 7.99678 48.8626L11.227 51.5019C11.7785 58.4154 15.6193 64.4031 21.154 67.9288V71.4545H18.2784C8.21344 71.4545 0 79.6482 0 89.7328V107.066C0 107.932 0.709074 108.641 1.57572 108.641H63.8758C64.7424 108.641 65.4515 107.932 65.4515 107.066V89.7328C65.4515 79.6482 57.2577 71.4545 47.1731 71.4545ZM11.1285 47.3657L9.98613 46.4202C8.70586 45.3763 8.25284 43.6233 8.88312 42.087C9.27705 41.1219 10.124 40.3537 11.1482 39.9992L11.1285 47.3657ZM14.28 28.0434C14.28 20.539 19.4798 14.4134 25.8615 14.4134H46.4641V17.5451C46.4641 18.2148 46.0701 18.6678 45.6959 18.6678H41.6384C41.5399 18.6678 41.4611 18.6678 41.3627 18.6678V21.8193C48.611 21.8193 54.5987 28.3388 55.2684 36.6311H48.0989C48.867 35.6265 49.5564 34.3857 50.167 32.8887L47.2519 31.6872C46.1095 34.4644 44.7899 36.0205 43.1944 36.4538C40.8309 37.0841 37.3249 35.469 31.8493 31.2145C28.9145 28.9297 25.8812 28.1813 22.8479 28.9494C19.1844 29.8752 16.2496 32.9478 14.2603 35.725L14.28 28.0434ZM14.28 49.7686V41.9294C15.4224 39.4083 19.1056 33.1645 23.6358 32.0221C25.7236 31.4903 27.7721 32.0615 29.9387 33.7357C34.0356 36.9068 38.29 39.7628 42.1702 39.7628C42.2293 39.7628 42.2884 39.7628 42.3475 39.7628V39.8022H51.014V49.7883C51.014 59.9123 42.7808 68.1455 32.6568 68.1455C22.5328 68.1455 14.28 59.8926 14.28 49.7686ZM24.2858 73.0105V69.603C26.866 70.6863 29.6826 71.2969 32.6568 71.2969C35.6113 71.2969 38.4476 70.6863 41.0278 69.603V72.912C41.0278 72.9514 41.0278 72.9908 41.0278 73.0302V76.7922L41.0081 77.2256C40.8309 81.7164 37.2067 85.242 32.775 85.2617H32.6765H32.578C28.0281 85.242 24.3252 81.4997 24.3252 76.8907V73.0499C24.2858 73.0105 24.2858 73.0105 24.2858 73.0105ZM62.3001 105.49H52.2154V97.513H49.064V105.49H16.3087V97.513H13.1573V105.49H3.13174V89.7328C3.13174 81.4012 9.90734 74.6059 18.2587 74.6059H21.1343V76.871C21.1343 83.1936 26.2554 88.3541 32.5386 88.3935H32.6371H32.7553C38.9006 88.3738 43.8838 83.5087 44.1399 77.324L44.1596 76.871C44.1596 76.8513 44.1596 76.8316 44.1596 76.8119V74.6059H47.1731C55.5047 74.6059 62.3001 81.3815 62.3001 89.7328V105.49Z" fill="#E30B13"/>
<path d="M114.806 66.9764H111.453V63.0534C118.137 58.8016 122.586 51.3282 122.586 42.8246V31.713H127.43V29.9597C127.43 21.237 122.893 13.6758 116.362 10.2349C117.085 9.38021 117.546 8.24056 117.546 6.99132V0H91.1145C82.0631 0 74.7211 8.37206 74.7211 18.6728V28.3598C72.1349 28.842 69.9214 30.5733 68.9571 33.0061C67.7078 36.1401 68.6064 39.6906 71.2145 41.8384L74.8087 44.7752C75.4224 52.4678 79.6961 59.1304 85.8546 63.0534V66.9764H82.6548C71.4555 66.9764 62.3164 76.0937 62.3164 87.3148V106.601C62.3164 107.566 63.1054 108.355 64.0697 108.355H133.391C134.356 108.355 135.145 107.566 135.145 106.601V87.3148C135.145 76.0937 126.027 66.9764 114.806 66.9764ZM74.6992 40.1727L73.428 39.1207C72.0034 37.9592 71.4994 36.0086 72.2007 34.2991C72.639 33.2252 73.5814 32.3705 74.7211 31.976L74.6992 40.1727ZM78.2058 18.6728C78.2058 10.3226 83.9917 3.50662 91.0926 3.50662H114.017V6.99132C114.017 7.73648 113.579 8.24056 113.162 8.24056H108.648C108.538 8.24056 108.45 8.24056 108.341 8.24056V11.7472C116.406 11.7472 123.069 19.0015 123.814 28.2283H115.836C116.691 27.1106 117.458 25.7298 118.137 24.0642L114.894 22.7273C113.623 25.8175 112.154 27.5489 110.379 28.031C107.749 28.7324 103.848 26.9352 97.7552 22.2013C94.4897 19.659 91.1145 18.8262 87.7394 19.6809C83.663 20.711 80.3974 24.1299 78.1839 27.2201L78.2058 18.6728ZM78.2058 42.8465V34.1238C79.4769 31.3185 83.5753 24.371 88.6161 23.0999C90.9392 22.5081 93.2185 23.1437 95.6293 25.0066C100.188 28.5351 104.922 31.713 109.239 31.713C109.305 31.713 109.371 31.713 109.437 31.713V31.7568H119.08V42.8684C119.08 54.1334 109.919 63.2945 98.6538 63.2945C87.3887 63.2945 78.2058 54.1115 78.2058 42.8465ZM89.3393 68.7078V64.9163C92.2103 66.1217 95.3444 66.8011 98.6538 66.8011C101.941 66.8011 105.097 66.1217 107.968 64.9163V68.5983C107.968 68.6421 107.968 68.6859 107.968 68.7298V72.9158L107.946 73.3979C107.749 78.3949 103.716 82.3179 98.7853 82.3398H98.6757H98.5661C93.5034 82.3179 89.3831 78.1538 89.3831 73.0254V68.7517C89.3393 68.7078 89.3393 68.7078 89.3393 68.7078ZM131.638 104.848H120.417V95.9718H116.91V104.848H80.4632V95.9718H76.9565V104.848H65.8011V87.3148C65.8011 78.0442 73.3403 70.4831 82.6329 70.4831H85.8327V73.0034C85.8327 80.0386 91.5309 85.7807 98.5223 85.8245H98.6318H98.7633C105.601 85.8026 111.146 80.3893 111.431 73.5075L111.453 73.0034C111.453 72.9815 111.453 72.9596 111.453 72.9377V70.4831H114.806C124.077 70.4831 131.638 78.0223 131.638 87.3148V104.848Z" fill="#E30B13"/>
<path d="M188.548 73.7065C189.962 71.8078 191.163 69.7153 192.151 67.4291C194.417 62.1786 195.501 55.9205 195.501 48.3257C195.501 38.4834 192.441 29.2416 186.902 22.2474C181.286 15.1563 173.771 11.262 165.753 11.262C157.813 11.262 150.395 15.1756 144.875 22.2668C139.53 29.1254 136.393 38.3477 136.025 48.2676C135.792 54.3512 136.993 61.113 139.278 66.8091C140.324 69.4053 141.564 71.7109 142.997 73.7452C137.264 76.8645 133.643 82.8901 133.643 89.5162V106.566C133.643 107.418 134.34 108.116 135.192 108.116H196.45C197.302 108.116 197.999 107.418 197.999 106.566V89.5162C197.999 82.8513 194.339 76.8064 188.548 73.7065ZM142.145 65.6466C140.014 60.338 138.891 54.0412 139.104 48.3644C139.453 39.1033 142.358 30.501 147.316 24.1655C152.254 17.8493 158.8 14.3619 165.753 14.3619C180.453 14.3619 192.402 29.5904 192.402 48.3257C192.402 61.3067 189.013 70.3159 181.77 76.3414L184.656 59.5436C186.089 56.6568 186.902 53.4018 186.902 49.9725V38.8515C186.902 38.8321 186.902 38.8127 186.902 38.7934C186.902 38.5802 186.844 38.3865 186.767 38.2121C186.67 38.0184 186.553 37.8246 186.379 37.689C183.629 35.2672 182.002 31.7797 181.905 28.1373L181.847 25.5217C181.828 24.9017 181.441 24.3399 180.84 24.1074C180.259 23.8749 179.581 24.0299 179.155 24.4949C173.016 31.0822 164.417 34.2016 158.278 35.674C151.557 37.2821 146.231 37.3015 146.154 37.3015C145.302 37.3015 144.604 37.999 144.604 38.8515L144.566 50.2244C144.566 53.1693 145.166 56.0368 146.309 58.6717C146.309 58.7492 146.328 58.8461 146.347 58.9236L150.221 76.9033C146.115 73.8227 143.597 69.2697 142.145 65.6466ZM165.889 68.2816C165.85 68.2816 165.792 68.2816 165.753 68.2816C160.95 68.2816 156.438 66.4216 153.029 63.031C149.582 59.6211 147.684 55.0681 147.684 50.205L147.722 40.3239C149.853 40.2077 153.997 39.859 158.936 38.6771C168.503 36.4103 174.836 32.5353 178.865 29.0479C179.175 33.0003 180.937 36.7396 183.803 39.4908V49.9338C183.803 52.8787 183.106 55.6687 181.867 58.1486C181.809 58.2455 181.75 58.3424 181.712 58.4393C178.729 64.2516 172.745 68.2428 165.889 68.2816ZM180.55 65.2591L179.465 71.5559H177.083V68.0491C178.322 67.2353 179.485 66.3054 180.55 65.2591ZM154.423 68.1072V71.5559H152.254L150.918 65.3173C152.003 66.3829 153.184 67.3128 154.423 68.1072ZM163.817 105.035H149.679V97.1886H146.58V105.035H136.722V89.5356C136.722 83.8782 139.918 78.7439 144.953 76.2252C146.987 78.492 149.291 80.2551 151.848 81.4563C152.061 81.5532 152.293 81.6113 152.506 81.6113C152.855 81.6113 153.184 81.4951 153.474 81.282C153.939 80.9138 154.152 80.3132 154.017 79.7514L152.932 74.6752H154.733L163.836 88.5087L163.817 105.035ZM157.522 73.2802V73.1059V73.0865V69.7347C160.098 70.8197 162.868 71.3815 165.753 71.3815C165.811 71.3815 165.869 71.3815 165.908 71.3815C168.755 71.3621 171.486 70.7615 173.965 69.6959V72.9896C173.965 73.009 173.965 73.0284 173.965 73.0671V73.2415L165.443 85.3119L157.522 73.2802ZM194.901 105.035H184.985V97.1886H181.886V105.035H166.935V88.6056L176.773 74.6752H178.942L178.09 79.5964C177.993 80.197 178.245 80.817 178.768 81.1464C179.271 81.4951 179.949 81.4951 180.453 81.1657C182.758 79.6932 184.772 78.027 186.515 76.1671C191.628 78.647 194.901 83.8201 194.901 89.555V105.035Z" fill="#E30B13"/>
</svg>
